<?xml version="1.0" standalone="no"?><!DOCTYPE svg PUBLIC "-//W3C//DTD SVG 1.1//EN" "http://www.w3.org/Graphics/SVG/1.1/DTD/svg11.dtd"><svg t="1591432595841" class="icon" viewBox="0 0 1024 1024" version="1.1" xmlns="http://www.w3.org/2000/svg" p-id="10358" xmlns:xlink="http://www.w3.org/1999/xlink" width="128" height="128"><defs><style type="text/css"></style></defs><path d="M1018.667563 822.743491c0 108.884932-89.103309 197.988241-197.988242 197.988241h-617.530656C94.263733 1020.559718 5.160423 931.628423 5.160423 822.743491v-617.530657C5.160423 96.327902 94.263733 7.224593 203.148665 7.224593h617.530656c108.884932 0 197.988241 89.103309 197.988242 197.988241v617.530657z m0 0" fill="#44A7DF" p-id="10359"></path><path d="M554.229464 555.605577c-46.271796-39.391231-57.108685-32.854695-57.108685-32.854695-19.26558 10.664875-41.283387 17.373425-65.021333 17.373425-25.630102 0-49.36805-7.568621-69.837729-19.953637-82.910801 38.875189-144.835881 144.663867-153.952629 272.986394l447.408701 1.720141c-6.536536-100.284226-55.044515-199.880396-101.488325-239.271628z m-121.958004 208.82513l-33.198724-34.402822 30.10247-157.048883-16.857383-23.393919c4.300353-5.84848 35.262893-6.536536 39.907274 0l-16.857383 23.393919 30.102469 157.048883-33.198723 34.402822z m-69.837729-252.688728c20.469679 12.385016 44.207626 19.953637 69.837729 19.953637 23.737947 0 45.583739-6.536536 65.021334-17.201411 41.799429-23.049891 70.525785-67.085503 70.525785-118.173694 0-74.826138-60.720981-135.547119-135.547119-135.547119s-135.547119 60.720981-135.547119 135.547119c0 49.024022 26.490173 91.683521 65.70939 115.421468z m384.623551 121.097934c-31.306568-26.662187-38.703175-22.18982-38.703175-22.189821-13.073072 7.224593-28.0383 11.69696-44.035612 11.69696-17.373425 0-33.370737-5.160423-47.303881-13.417101-56.248614 26.318159-98.048043 97.876029-104.240551 184.915169l302.916849 1.204099c-4.300353-68.117588-37.155048-135.375105-68.63363-162.209306z m-82.566773 141.395599l-22.533848-23.221905 20.297665-106.304721-11.352932-15.825298c2.92424-3.956325 23.909961-4.300353 27.006216 0l-11.352932 15.825298 20.297665 106.304721-22.361834 23.221905z m-47.30388-171.15404c13.761129 8.428691 29.930455 13.417101 47.30388 13.4171 15.997312 0 30.790526-4.472367 44.035612-11.696959 28.382328-15.653284 47.819923-45.411725 47.819923-79.986562 0-50.744163-41.111372-91.683521-91.683521-91.683521-50.744163 0-91.683521 41.111372-91.683521 91.683521-0.344028 33.370737 17.545439 62.269108 44.207627 78.266421z m0 0" fill="#FFFFFF" p-id="10360"></path><path d="M820.679321 6.536536h-617.530656C96.67193 6.536536 9.288762 91.683521 5.332437 197.300185v632.151856c1.892155 51.088191 23.393919 97.359987 57.108685 131.590795L959.494709 63.817235C923.715774 28.382328 874.691752 6.536536 820.679321 6.536536z" opacity=".1" p-id="10361"></path></svg>