<?xml version="1.0" standalone="no"?><!DOCTYPE svg PUBLIC "-//W3C//DTD SVG 1.1//EN" "http://www.w3.org/Graphics/SVG/1.1/DTD/svg11.dtd"><svg t="1591432063280" class="icon" viewBox="0 0 1024 1024" version="1.1" xmlns="http://www.w3.org/2000/svg" p-id="2756" width="64" height="64" xmlns:xlink="http://www.w3.org/1999/xlink"><defs><style type="text/css"></style></defs><path d="M704.01776 256c0-106.032-85.968-192-192-192S320.01776 149.968 320.01776 256c0 91.36 63.872 167.664 149.36 187.088L512.01776 584l42.64-140.912C640.14576 423.68 704.01776 347.36 704.01776 256z" fill="#FF5252" p-id="2757"></path><path d="M512.01776 592a8.032 8.032 0 0 1-7.664-5.68l-41.312-136.512A198.8 198.8 0 0 1 312.01776 256c0-110.288 89.712-200 200-200S712.01776 145.712 712.01776 256a198.816 198.816 0 0 1-151.04 193.808l-41.312 136.496A8 8 0 0 1 512.01776 592z m0-520c-101.456 0-184 82.544-184 184a182.88 182.88 0 0 0 143.12 179.28 8 8 0 0 1 5.888 5.488L512.01776 556.368l34.992-115.6a8 8 0 0 1 5.888-5.488A182.912 182.912 0 0 0 696.01776 256c0-101.456-82.544-184-184-184zM32.01776 920H16.01776a8 8 0 0 1 0-16h16a8 8 0 0 1 0 16zM272.01776 920H64.01776a8 8 0 0 1 0-16h208a8 8 0 0 1 0 16zM352.01776 968H144.01776a8 8 0 0 1 0-16h208a8 8 0 0 1 0 16zM372.01776 760H136.01776a87.68 87.68 0 0 1-87.568-79.216 7.984 7.984 0 0 1 7.168-8.752 7.968 7.968 0 0 1 8.752 7.152A71.712 71.712 0 0 0 136.01776 744h236a8 8 0 0 1 0 16z" fill="#263238" p-id="2758"></path><path d="M459.21776 552H248.01776a8 8 0 0 1-6.784-3.76L172.97776 439.04a31.84 31.84 0 0 0-27.136-15.04H96.01776c-17.648 0-32 14.352-32 32v80a8 8 0 0 1-16 0v-80c0-26.464 21.536-48 48-48h49.824c16.656 0 31.872 8.432 40.704 22.544l65.904 105.456H459.21776a8 8 0 0 1 0 16zM944.01776 760H696.01776a8 8 0 0 1 0-16H944.01776c35.296 0 64-28.704 64-64a72.368 72.368 0 0 0-28.8-57.6l-32-24a233.472 233.472 0 0 0-139.2-46.4H564.81776a8 8 0 0 1 0-16h243.2c53.312 0 106.144 17.616 148.8 49.6l32 24a88.448 88.448 0 0 1 35.2 70.4c0 44.112-35.888 80-80 80z" fill="#263238" p-id="2759"></path><path d="M840.01776 624a16 16 0 0 0 16 16h149.136a79.84 79.84 0 0 0-21.136-24l-32-24a238.592 238.592 0 0 0-24.656-16H856.01776a16 16 0 0 0-16 16v32z" fill="#40C4FF" p-id="2760"></path><path d="M1005.15376 648H856.01776c-13.232 0-24-10.768-24-24v-32c0-13.232 10.768-24 24-24h71.344c1.392 0 2.768 0.352 3.984 1.056 9.744 5.584 18.08 11.008 25.472 16.528l32 24a87.84 87.84 0 0 1 23.264 26.384 8 8 0 1 1-6.928 12.032z m-149.136-64a8 8 0 0 0-8 8v32a8 8 0 0 0 8 8h133.6a69.28 69.28 0 0 0-10.384-9.6l-32-24c-6.4-4.8-13.616-9.536-22-14.4H856.01776z" fill="#263238" p-id="2761"></path><path d="M468.01776 912h-100.912a16 16 0 0 1-14.976-21.616L440.01776 656h240L500.01776 896c-7.552 10.08-19.408 16-32 16z" fill="#40C4FF" p-id="2762"></path><path d="M468.01776 920h-100.912a24.032 24.032 0 0 1-22.464-32.448l87.888-234.368a8 8 0 0 1 7.488-5.184h240a8 8 0 0 1 6.4 12.784l-180 240a48.16 48.16 0 0 1-38.4 19.216z m-22.448-256l-85.952 229.184c-0.944 2.496-0.608 5.184 0.912 7.376s3.904 3.44 6.576 3.44h100.912c10.016 0 19.6-4.784 25.6-12.8L664.01776 664H445.56976zM592.01776 880h-42a8 8 0 0 1 0-16H592.01776a8 8 0 0 0 8-8V848a8 8 0 0 0-8-8h-12a8 8 0 0 1 0-16H592.01776c13.232 0 24 10.768 24 24v8c0 13.232-10.768 24-24 24zM648.01776 800h-38a8 8 0 0 1 0-16H648.01776a8 8 0 0 0 8-8V768a8 8 0 0 0-8-8H640.01776a8 8 0 0 1 0-16h8c13.232 0 24 10.768 24 24v8c0 13.232-10.768 24-24 24z" fill="#263238" p-id="2763"></path><path d="M56.01776 568h128l-102.736 72.656a39.968 39.968 0 0 1-23.104 7.344H8.01776l48-80z" fill="#40C4FF" p-id="2764"></path><path d="M58.17776 656H8.01776a8 8 0 0 1-6.864-12.112l48-80A8 8 0 0 1 56.01776 560h128a8 8 0 0 1 4.624 14.544L85.90576 647.2c-8.144 5.76-17.728 8.8-27.728 8.8z m-36.032-16h36.032c6.656 0 13.04-2.032 18.464-5.872L158.84976 576H60.54576l-38.4 64zM392.01776 920a8 8 0 0 1-7.488-10.816l96-256a8 8 0 0 1 14.976 5.632l-96 256a8 8 0 0 1-7.488 5.184z" fill="#263238" p-id="2765"></path><path d="M608.01776 336H416.01776a16 16 0 0 1-16-16v-128a16 16 0 0 1 16-16h192a16 16 0 0 1 16 16v128a16 16 0 0 1-16 16z" fill="#FFD740" p-id="2766"></path><path d="M608.01776 344H416.01776c-13.232 0-24-10.768-24-24v-128c0-13.232 10.768-24 24-24h192c13.232 0 24 10.768 24 24v128c0 13.232-10.768 24-24 24z m-192-160a8 8 0 0 0-8 8v128a8 8 0 0 0 8 8h192a8 8 0 0 0 8-8v-128a8 8 0 0 0-8-8H416.01776z" fill="#263238" p-id="2767"></path><path d="M544.01776 184h-64a8 8 0 0 1-8-8v-16c0-13.232 10.768-24 24-24h32c13.232 0 24 10.768 24 24v16a8 8 0 0 1-8 8z m-56-16h48V160a8 8 0 0 0-8-8h-32a8 8 0 0 0-8 8v8zM496.01776 264h-96a8 8 0 0 1 0-16h96a8 8 0 0 1 0 16zM624.01776 264h-96a8 8 0 0 1 0-16h96a8 8 0 0 1 0 16z" fill="#263238" p-id="2768"></path><path d="M528.01776 288h-32a8 8 0 0 1-8-8v-48a8 8 0 0 1 8-8h32a8 8 0 0 1 8 8v48a8 8 0 0 1-8 8z m-24-16h16v-32h-16v32z" fill="#263238" p-id="2769"></path><path d="M936.01776 288h-64a8 8 0 0 1 0-16h64a8 8 0 0 1 0 16z" fill="#263238" p-id="2770"></path><path d="M904.01776 320a8 8 0 0 1-8-8v-64a8 8 0 0 1 16 0v64a8 8 0 0 1-8 8z" fill="#263238" p-id="2771"></path><path d="M840.01776 376h-64a8 8 0 0 1 0-16h64a8 8 0 0 1 0 16z" fill="#263238" p-id="2772"></path><path d="M808.01776 408a8 8 0 0 1-8-8v-64a8 8 0 0 1 16 0v64a8 8 0 0 1-8 8z" fill="#263238" p-id="2773"></path><path d="M904.01776 896a32 32 0 1 0-64 0 32 32 0 1 0 0 64h64a32 32 0 1 0 0-64z" fill="#4FC3F7" p-id="2774"></path></svg>